<svg width="17" height="18" viewBox="0 0 17 18" fill="none" xmlns="http://www.w3.org/2000/svg">
<path d="M8.33333 17.4C7.66667 17 7.02222 16.6 6.4 16.2C5.77778 15.7556 5.17778 15.2889 4.6 14.8C4.02222 14.3111 3.48889 13.8 3 13.2667C2.51111 12.6889 2.06667 12.0667 1.66667 11.4C1.31111 10.7333 1.02222 10.0222 0.8 9.26667C0.577778 8.46667 0.488889 7.66667 0.533333 6.86667V2.86667L1.13333 2.26667C1.57778 2.26667 1.97778 2.24444 2.33333 2.2C2.68889 2.15555 3.04444 2.11111 3.4 2.06667C3.8 1.97778 4.15556 1.86667 4.46667 1.73333C4.82222 1.6 5.15556 1.42222 5.46667 1.2C5.95556 0.888888 6.46667 0.644444 7 0.466666C7.8 0.244444 8.62222 0.2 9.46667 0.333333C10 0.377778 10.5111 0.533333 11 0.799999C11.2667 0.933333 11.5111 1.06667 11.7333 1.2C12.0889 1.42222 12.4222 1.6 12.7333 1.73333C13.0889 1.86667 13.4444 1.97778 13.8 2.06667C14.2 2.11111 14.5778 2.15555 14.9333 2.2C15.2889 2.24444 15.6889 2.26667 16.1333 2.26667L16.7333 2.86667V6.86667C16.7333 7.66667 16.6222 8.46667 16.4 9.26667C16.2222 10.0222 15.9333 10.7333 15.5333 11.4C15.1778 12.0667 14.7333 12.6889 14.2 13.2667C13.7111 13.8 13.1778 14.3111 12.6 14.8C12.0667 15.2889 11.4889 15.7556 10.8667 16.2C10.2444 16.6 9.6 17 8.93333 17.4H8.33333ZM1.73333 3.46667V6.86667C1.73333 7.57778 1.82222 8.26667 2 8.93333C2.17778 9.55556 2.42222 10.1778 2.73333 10.8C3.08889 11.3778 3.48889 11.9333 3.93333 12.4667C4.42222 12.9556 4.93333 13.4444 5.46667 13.9333C6 14.3778 6.55556 14.7778 7.13333 15.1333L8.6 16.1333C9.13333 15.8222 9.64444 15.4889 10.1333 15.1333C10.7111 14.7333 11.2667 14.3111 11.8 13.8667C12.3333 13.4222 12.8222 12.9556 13.2667 12.4667C13.7556 11.9333 14.1556 11.3778 14.4667 10.8C14.7778 10.1778 15.0222 9.55556 15.2 8.93333C15.4222 8.26667 15.5333 7.57778 15.5333 6.86667V3.46667H14.8C14.4 3.42222 13.9778 3.35555 13.5333 3.26667C12.6444 3.08889 11.8222 2.75556 11.0667 2.26667L10.4667 1.93333C10.1111 1.75556 9.71111 1.62222 9.26667 1.53333C8.64444 1.44444 8 1.48889 7.33333 1.66667C6.93333 1.8 6.53333 2 6.13333 2.26667C5.77778 2.48889 5.37778 2.68889 4.93333 2.86667C4.53333 3.04444 4.11111 3.17778 3.66667 3.26667C3.26667 3.35555 2.84444 3.42222 2.4 3.46667H1.73333ZM9.33333 8.86667C9.73333 8.68889 10.0444 8.4 10.2667 8C10.4889 7.6 10.5556 7.2 10.4667 6.8C10.3778 6.35555 10.1556 6 9.8 5.73333C9.44444 5.42222 9.04444 5.26667 8.6 5.26667C8.15556 5.26667 7.75556 5.42222 7.4 5.73333C7.08889 6 6.88889 6.35555 6.8 6.8C6.71111 7.2 6.75556 7.6 6.93333 8C7.15556 8.4 7.48889 8.68889 7.93333 8.86667L7.4 12.1333H9.86667L9.33333 8.86667Z" fill="white"/>
</svg>
